<svg width="180" height="12" viewBox="0 0 180 12" fill="none" xmlns="http://www.w3.org/2000/svg">
<path d="M180 12H171.998C171.947 9.83497 170.177 8.0957 168 8.0957C165.823 8.0957 164.053 9.83497 164.002 12H159.999C159.974 9.8128 158.193 8.04785 156 8.04785C153.807 8.04785 152.026 9.8128 152.001 12H147.999C147.974 9.8128 146.193 8.04785 144 8.04785C141.807 8.04785 140.026 9.8128 140.001 12H135.999C135.974 9.8128 134.193 8.04785 132 8.04785C129.807 8.04785 128.026 9.8128 128.001 12H123.999C123.974 9.8128 122.193 8.04785 120 8.04785C117.807 8.04785 116.026 9.8128 116.001 12H111.999C111.974 9.8128 110.193 8.04785 108 8.04785C105.807 8.04785 104.026 9.8128 104.001 12H99.999C99.9735 9.8128 98.1932 8.04785 96 8.04785C93.8068 8.04785 92.0265 9.8128 92.001 12H87.999C87.9735 9.8128 86.1932 8.04785 84 8.04785C81.8068 8.04785 80.0265 9.8128 80.001 12H75.999C75.9735 9.8128 74.1932 8.04785 72 8.04785C69.8068 8.04785 68.0265 9.8128 68.001 12H63.999C63.9735 9.8128 62.1932 8.04785 60 8.04785C57.8068 8.04785 56.0265 9.8128 56.001 12H51.999C51.9735 9.8128 50.1932 8.04785 48 8.04785C45.8068 8.04785 44.0265 9.8128 44.001 12H39.999C39.9735 9.8128 38.1932 8.04785 36 8.04785C33.8068 8.04785 32.0265 9.8128 32.001 12H27.999C27.9735 9.8128 26.1932 8.04785 24 8.04785C21.8068 8.04785 20.0265 9.8128 20.001 12H16C16 9.79086 14.2091 8 12 8C9.79086 8 8 9.79086 8 12H0V0H180V12Z" fill="white"/>
</svg>
